<mxfile host="Electron" modified="2024-03-19T22:41:47.982Z" agent="Mozilla/5.0 (Windows NT 10.0; Win64; x64) AppleWebKit/537.36 (KHTML, like Gecko) draw.io/24.0.4 Chrome/120.0.6099.109 Electron/28.1.0 Safari/537.36" etag="2IuyOdyRkpnFWwFSx-9L" version="24.0.4" type="device">
  <diagram name="Page-1" id="nihOt1RrnXjVCUmb8j9h">
    <mxGraphModel dx="1098" dy="820" grid="1" gridSize="10" guides="1" tooltips="1" connect="1" arrows="1" fold="1" page="1" pageScale="1" pageWidth="850" pageHeight="1100" math="0" shadow="0">
      <root>
        <mxCell id="0" />
        <mxCell id="1" parent="0" />
        <mxCell id="uzzGxhIPLnsw-joCyNRi-2" style="edgeStyle=orthogonalEdgeStyle;rounded=0;orthogonalLoop=1;jettySize=auto;html=1;exitX=0.5;exitY=1;exitDx=0;exitDy=0;" edge="1" parent="1" source="uzzGxhIPLnsw-joCyNRi-1" target="uzzGxhIPLnsw-joCyNRi-3">
          <mxGeometry relative="1" as="geometry">
            <mxPoint x="420" y="200" as="targetPoint" />
          </mxGeometry>
        </mxCell>
        <mxCell id="uzzGxhIPLnsw-joCyNRi-1" value="Internet" style="rounded=1;whiteSpace=wrap;html=1;" vertex="1" parent="1">
          <mxGeometry x="310" y="30" width="220" height="60" as="geometry" />
        </mxCell>
        <mxCell id="uzzGxhIPLnsw-joCyNRi-6" style="edgeStyle=none;rounded=0;orthogonalLoop=1;jettySize=auto;html=1;exitX=0.5;exitY=1;exitDx=0;exitDy=0;" edge="1" parent="1" source="uzzGxhIPLnsw-joCyNRi-3" target="uzzGxhIPLnsw-joCyNRi-7">
          <mxGeometry relative="1" as="geometry">
            <mxPoint x="420" y="320" as="targetPoint" />
          </mxGeometry>
        </mxCell>
        <mxCell id="uzzGxhIPLnsw-joCyNRi-3" value="Router/Modem&lt;div&gt;&lt;br&gt;&lt;/div&gt;" style="rounded=1;whiteSpace=wrap;html=1;" vertex="1" parent="1">
          <mxGeometry x="350" y="170" width="140" height="50" as="geometry" />
        </mxCell>
        <mxCell id="uzzGxhIPLnsw-joCyNRi-8" style="edgeStyle=none;rounded=0;orthogonalLoop=1;jettySize=auto;html=1;exitX=0.5;exitY=1;exitDx=0;exitDy=0;" edge="1" parent="1" source="uzzGxhIPLnsw-joCyNRi-7" target="uzzGxhIPLnsw-joCyNRi-9">
          <mxGeometry relative="1" as="geometry">
            <mxPoint x="420" y="450" as="targetPoint" />
          </mxGeometry>
        </mxCell>
        <mxCell id="uzzGxhIPLnsw-joCyNRi-7" value="CIDR&lt;div&gt;192.168.1.000/24&lt;/div&gt;" style="rounded=1;whiteSpace=wrap;html=1;" vertex="1" parent="1">
          <mxGeometry x="330" y="290" width="180" height="60" as="geometry" />
        </mxCell>
        <mxCell id="uzzGxhIPLnsw-joCyNRi-13" style="edgeStyle=none;rounded=0;orthogonalLoop=1;jettySize=auto;html=1;exitX=0.5;exitY=1;exitDx=0;exitDy=0;" edge="1" parent="1" source="uzzGxhIPLnsw-joCyNRi-9">
          <mxGeometry relative="1" as="geometry">
            <mxPoint x="270" y="600" as="targetPoint" />
          </mxGeometry>
        </mxCell>
        <mxCell id="uzzGxhIPLnsw-joCyNRi-9" value="SUBNET&lt;div&gt;255.255.255.0&lt;/div&gt;" style="rounded=1;whiteSpace=wrap;html=1;" vertex="1" parent="1">
          <mxGeometry x="180" y="410" width="180" height="60" as="geometry" />
        </mxCell>
        <mxCell id="uzzGxhIPLnsw-joCyNRi-14" style="edgeStyle=none;rounded=0;orthogonalLoop=1;jettySize=auto;html=1;exitX=0.5;exitY=1;exitDx=0;exitDy=0;" edge="1" parent="1" source="uzzGxhIPLnsw-joCyNRi-10" target="uzzGxhIPLnsw-joCyNRi-15">
          <mxGeometry relative="1" as="geometry">
            <mxPoint x="565" y="600" as="targetPoint" />
          </mxGeometry>
        </mxCell>
        <mxCell id="uzzGxhIPLnsw-joCyNRi-10" value="SUBNET&lt;div&gt;255.255.255.1&lt;/div&gt;" style="rounded=1;whiteSpace=wrap;html=1;" vertex="1" parent="1">
          <mxGeometry x="460" y="410" width="210" height="60" as="geometry" />
        </mxCell>
        <mxCell id="uzzGxhIPLnsw-joCyNRi-11" style="edgeStyle=none;rounded=0;orthogonalLoop=1;jettySize=auto;html=1;exitX=0.75;exitY=1;exitDx=0;exitDy=0;entryX=0.548;entryY=-0.017;entryDx=0;entryDy=0;entryPerimeter=0;" edge="1" parent="1" source="uzzGxhIPLnsw-joCyNRi-7" target="uzzGxhIPLnsw-joCyNRi-10">
          <mxGeometry relative="1" as="geometry" />
        </mxCell>
        <mxCell id="uzzGxhIPLnsw-joCyNRi-15" value="GATEWAY&lt;div&gt;192.168.100.1.2&lt;/div&gt;" style="rounded=1;whiteSpace=wrap;html=1;" vertex="1" parent="1">
          <mxGeometry x="470" y="610" width="190" height="60" as="geometry" />
        </mxCell>
        <mxCell id="uzzGxhIPLnsw-joCyNRi-16" value="GATEWAY&lt;div&gt;192.168.100.1.1&lt;/div&gt;" style="rounded=1;whiteSpace=wrap;html=1;" vertex="1" parent="1">
          <mxGeometry x="170" y="600" width="190" height="70" as="geometry" />
        </mxCell>
      </root>
    </mxGraphModel>
  </diagram>
</mxfile>
